ISO-10303-21;
HEADER;
/* Generated by software containing ST-Developer
 * from STEP Tools, Inc. (www.steptools.com) 
 */

FILE_DESCRIPTION(
/* description */ (''),
/* implementation_level */ '2;1');

FILE_NAME(
/* name */ 'TDA22594A.step',
/* time_stamp */ '2026-08-17T15:24:54+03:00',
/* author */ (''),
/* organization */ (''),
/* preprocessor_version */ 'ST-DEVELOPER v20.1',
/* originating_system */ 'Autodesk Translation Framework v15.8.0.0',
/* authorisation */ '');

FILE_SCHEMA (('AUTOMOTIVE_DESIGN { 1 0 10303 214 3 1 1 }'));
ENDSEC;

DATA;
#10=MECHANICAL_DESIGN_GEOMETRIC_PRESENTATION_REPRESENTATION('',(#58,#59,
#60,#61,#62),#1069);
#11=SHAPE_REPRESENTATION_RELATIONSHIP('SRR','None',#1076,#12);
#12=ADVANCED_BREP_SHAPE_REPRESENTATION('',(#13,#14,#15,#16),#1068);
#13=MANIFOLD_SOLID_BREP('Body1',#658);
#14=MANIFOLD_SOLID_BREP('Body2',#659);
#15=MANIFOLD_SOLID_BREP('Body3',#660);
#16=MANIFOLD_SOLID_BREP('Body4',#661);
#17=FACE_BOUND('',#121,.T.);
#18=PLANE('',#678);
#19=PLANE('',#679);
#20=PLANE('',#680);
#21=PLANE('',#681);
#22=PLANE('',#682);
#23=PLANE('',#683);
#24=PLANE('',#684);
#25=PLANE('',#685);
#26=PLANE('',#686);
#27=PLANE('',#687);
#28=PLANE('',#688);
#29=PLANE('',#689);
#30=PLANE('',#690);
#31=PLANE('',#691);
#32=PLANE('',#692);
#33=PLANE('',#693);
#34=PLANE('',#694);
#35=PLANE('',#695);
#36=PLANE('',#696);
#37=PLANE('',#697);
#38=PLANE('',#698);
#39=PLANE('',#699);
#40=PLANE('',#700);
#41=PLANE('',#701);
#42=PLANE('',#702);
#43=PLANE('',#703);
#44=PLANE('',#704);
#45=PLANE('',#705);
#46=PLANE('',#706);
#47=PLANE('',#707);
#48=PLANE('',#708);
#49=PLANE('',#709);
#50=PLANE('',#710);
#51=PLANE('',#711);
#52=PLANE('',#712);
#53=PLANE('',#713);
#54=PLANE('',#714);
#55=PLANE('',#715);
#56=PLANE('',#716);
#57=PLANE('',#717);
#58=STYLED_ITEM('',(#1087),#618);
#59=STYLED_ITEM('',(#1086),#13);
#60=STYLED_ITEM('',(#1088),#14);
#61=STYLED_ITEM('',(#1088),#15);
#62=STYLED_ITEM('',(#1088),#16);
#63=FACE_OUTER_BOUND('',#104,.T.);
#64=FACE_OUTER_BOUND('',#105,.T.);
#65=FACE_OUTER_BOUND('',#106,.T.);
#66=FACE_OUTER_BOUND('',#107,.T.);
#67=FACE_OUTER_BOUND('',#108,.T.);
#68=FACE_OUTER_BOUND('',#109,.T.);
#69=FACE_OUTER_BOUND('',#110,.T.);
#70=FACE_OUTER_BOUND('',#111,.T.);
#71=FACE_OUTER_BOUND('',#112,.T.);
#72=FACE_OUTER_BOUND('',#113,.T.);
#73=FACE_OUTER_BOUND('',#114,.T.);
#74=FACE_OUTER_BOUND('',#115,.T.);
#75=FACE_OUTER_BOUND('',#116,.T.);
#76=FACE_OUTER_BOUND('',#117,.T.);
#77=FACE_OUTER_BOUND('',#118,.T.);
#78=FACE_OUTER_BOUND('',#119,.T.);
#79=FACE_OUTER_BOUND('',#120,.T.);
#80=FACE_OUTER_BOUND('',#122,.T.);
#81=FACE_OUTER_BOUND('',#123,.T.);
#82=FACE_OUTER_BOUND('',#124,.T.);
#83=FACE_OUTER_BOUND('',#125,.T.);
#84=FACE_OUTER_BOUND('',#126,.T.);
#85=FACE_OUTER_BOUND('',#127,.T.);
#86=FACE_OUTER_BOUND('',#128,.T.);
#87=FACE_OUTER_BOUND('',#129,.T.);
#88=FACE_OUTER_BOUND('',#130,.T.);
#89=FACE_OUTER_BOUND('',#131,.T.);
#90=FACE_OUTER_BOUND('',#132,.T.);
#91=FACE_OUTER_BOUND('',#133,.T.);
#92=FACE_OUTER_BOUND('',#134,.T.);
#93=FACE_OUTER_BOUND('',#135,.T.);
#94=FACE_OUTER_BOUND('',#136,.T.);
#95=FACE_OUTER_BOUND('',#137,.T.);
#96=FACE_OUTER_BOUND('',#138,.T.);
#97=FACE_OUTER_BOUND('',#139,.T.);
#98=FACE_OUTER_BOUND('',#140,.T.);
#99=FACE_OUTER_BOUND('',#141,.T.);
#100=FACE_OUTER_BOUND('',#142,.T.);
#101=FACE_OUTER_BOUND('',#143,.T.);
#102=FACE_OUTER_BOUND('',#144,.T.);
#103=FACE_OUTER_BOUND('',#145,.T.);
#104=EDGE_LOOP('',(#448,#449,#450,#451));
#105=EDGE_LOOP('',(#452));
#106=EDGE_LOOP('',(#453,#454,#455));
#107=EDGE_LOOP('',(#456,#457,#458,#459));
#108=EDGE_LOOP('',(#460,#461,#462));
#109=EDGE_LOOP('',(#463,#464,#465,#466));
#110=EDGE_LOOP('',(#467,#468,#469));
#111=EDGE_LOOP('',(#470,#471,#472,#473));
#112=EDGE_LOOP('',(#474,#475,#476,#477));
#113=EDGE_LOOP('',(#478,#479,#480));
#114=EDGE_LOOP('',(#481,#482,#483,#484));
#115=EDGE_LOOP('',(#485,#486,#487,#488));
#116=EDGE_LOOP('',(#489,#490,#491,#492));
#117=EDGE_LOOP('',(#493,#494,#495,#496));
#118=EDGE_LOOP('',(#497,#498,#499,#500));
#119=EDGE_LOOP('',(#501,#502,#503,#504));
#120=EDGE_LOOP('',(#505,#506,#507,#508));
#121=EDGE_LOOP('',(#509));
#122=EDGE_LOOP('',(#510,#511,#512,#513));
#123=EDGE_LOOP('',(#514,#515,#516,#517));
#124=EDGE_LOOP('',(#518,#519,#520,#521,#522,#523,#524,#525));
#125=EDGE_LOOP('',(#526,#527,#528,#529));
#126=EDGE_LOOP('',(#530,#531,#532,#533));
#127=EDGE_LOOP('',(#534,#535,#536,#537));
#128=EDGE_LOOP('',(#538,#539,#540,#541));
#129=EDGE_LOOP('',(#542,#543,#544,#545));
#130=EDGE_LOOP('',(#546,#547,#548,#549));
#131=EDGE_LOOP('',(#550,#551,#552,#553,#554,#555));
#132=EDGE_LOOP('',(#556,#557,#558,#559,#560,#561));
#133=EDGE_LOOP('',(#562,#563,#564,#565));
#134=EDGE_LOOP('',(#566,#567,#568,#569));
#135=EDGE_LOOP('',(#570,#571,#572,#573));
#136=EDGE_LOOP('',(#574,#575,#576,#577));
#137=EDGE_LOOP('',(#578,#579,#580,#581));
#138=EDGE_LOOP('',(#582,#583,#584,#585,#586));
#139=EDGE_LOOP('',(#587,#588,#589,#590,#591));
#140=EDGE_LOOP('',(#592,#593,#594,#595));
#141=EDGE_LOOP('',(#596,#597,#598,#599));
#142=EDGE_LOOP('',(#600,#601,#602,#603));
#143=EDGE_LOOP('',(#604,#605,#606,#607));
#144=EDGE_LOOP('',(#608,#609,#610,#611));
#145=EDGE_LOOP('',(#612,#613,#614,#615));
#146=LINE('',#893,#228);
#147=LINE('',#899,#229);
#148=LINE('',#901,#230);
#149=LINE('',#902,#231);
#150=LINE('',#906,#232);
#151=LINE('',#907,#233);
#152=LINE('',#908,#234);
#153=LINE('',#912,#235);
#154=LINE('',#914,#236);
#155=LINE('',#915,#237);
#156=LINE('',#919,#238);
#157=LINE('',#920,#239);
#158=LINE('',#921,#240);
#159=LINE('',#925,#241);
#160=LINE('',#927,#242);
#161=LINE('',#928,#243);
#162=LINE('',#932,#244);
#163=LINE('',#933,#245);
#164=LINE('',#934,#246);
#165=LINE('',#936,#247);
#166=LINE('',#937,#248);
#167=LINE('',#941,#249);
#168=LINE('',#943,#250);
#169=LINE('',#944,#251);
#170=LINE('',#948,#252);
#171=LINE('',#949,#253);
#172=LINE('',#950,#254);
#173=LINE('',#952,#255);
#174=LINE('',#953,#256);
#175=LINE('',#955,#257);
#176=LINE('',#956,#258);
#177=LINE('',#958,#259);
#178=LINE('',#959,#260);
#179=LINE('',#961,#261);
#180=LINE('',#963,#262);
#181=LINE('',#966,#263);
#182=LINE('',#968,#264);
#183=LINE('',#973,#265);
#184=LINE('',#975,#266);
#185=LINE('',#977,#267);
#186=LINE('',#978,#268);
#187=LINE('',#981,#269);
#188=LINE('',#983,#270);
#189=LINE('',#984,#271);
#190=LINE('',#987,#272);
#191=LINE('',#989,#273);
#192=LINE('',#990,#274);
#193=LINE('',#993,#275);
#194=LINE('',#995,#276);
#195=LINE('',#996,#277);
#196=LINE('',#999,#278);
#197=LINE('',#1001,#279);
#198=LINE('',#1002,#280);
#199=LINE('',#1004,#281);
#200=LINE('',#1005,#282);
#201=LINE('',#1011,#283);
#202=LINE('',#1013,#284);
#203=LINE('',#1015,#285);
#204=LINE('',#1016,#286);
#205=LINE('',#1019,#287);
#206=LINE('',#1021,#288);
#207=LINE('',#1022,#289);
#208=LINE('',#1025,#290);
#209=LINE('',#1027,#291);
#210=LINE('',#1028,#292);
#211=LINE('',#1031,#293);
#212=LINE('',#1033,#294);
#213=LINE('',#1034,#295);
#214=LINE('',#1036,#296);
#215=LINE('',#1037,#297);
#216=LINE('',#1043,#298);
#217=LINE('',#1045,#299);
#218=LINE('',#1047,#300);
#219=LINE('',#1048,#301);
#220=LINE('',#1051,#302);
#221=LINE('',#1053,#303);
#222=LINE('',#1054,#304);
#223=LINE('',#1057,#305);
#224=LINE('',#1059,#306);
#225=LINE('',#1060,#307);
#226=LINE('',#1062,#308);
#227=LINE('',#1063,#309);
#228=VECTOR('',#724,0.107701290884613);
#229=VECTOR('',#731,10.);
#230=VECTOR('',#732,10.);
#231=VECTOR('',#733,10.);
#232=VECTOR('',#736,10.);
#233=VECTOR('',#737,10.);
#234=VECTOR('',#738,10.);
#235=VECTOR('',#741,10.);
#236=VECTOR('',#742,10.);
#237=VECTOR('',#743,10.);
#238=VECTOR('',#746,10.);
#239=VECTOR('',#747,10.);
#240=VECTOR('',#748,10.);
#241=VECTOR('',#751,10.);
#242=VECTOR('',#752,10.);
#243=VECTOR('',#753,10.);
#244=VECTOR('',#756,10.);
#245=VECTOR('',#757,10.);
#246=VECTOR('',#758,10.);
#247=VECTOR('',#761,10.);
#248=VECTOR('',#762,10.);
#249=VECTOR('',#765,10.);
#250=VECTOR('',#766,10.);
#251=VECTOR('',#767,10.);
#252=VECTOR('',#770,10.);
#253=VECTOR('',#771,10.);
#254=VECTOR('',#772,10.);
#255=VECTOR('',#775,10.);
#256=VECTOR('',#776,10.);
#257=VECTOR('',#779,10.);
#258=VECTOR('',#780,10.);
#259=VECTOR('',#783,10.);
#260=VECTOR('',#784,10.);
#261=VECTOR('',#787,10.);
#262=VECTOR('',#790,10.);
#263=VECTOR('',#795,10.);
#264=VECTOR('',#798,10.);
#265=VECTOR('',#803,10.);
#266=VECTOR('',#804,10.);
#267=VECTOR('',#805,10.);
#268=VECTOR('',#806,10.);
#269=VECTOR('',#809,10.);
#270=VECTOR('',#810,10.);
#271=VECTOR('',#811,10.);
#272=VECTOR('',#814,10.);
#273=VECTOR('',#815,10.);
#274=VECTOR('',#816,10.);
#275=VECTOR('',#819,10.);
#276=VECTOR('',#820,10.);
#277=VECTOR('',#821,10.);
#278=VECTOR('',#824,10.);
#279=VECTOR('',#825,10.);
#280=VECTOR('',#826,10.);
#281=VECTOR('',#829,10.);
#282=VECTOR('',#830,10.);
#283=VECTOR('',#837,10.);
#284=VECTOR('',#838,10.);
#285=VECTOR('',#839,10.);
#286=VECTOR('',#840,10.);
#287=VECTOR('',#843,10.);
#288=VECTOR('',#844,10.);
#289=VECTOR('',#845,10.);
#290=VECTOR('',#848,10.);
#291=VECTOR('',#849,10.);
#292=VECTOR('',#850,10.);
#293=VECTOR('',#853,10.);
#294=VECTOR('',#854,10.);
#295=VECTOR('',#855,10.);
#296=VECTOR('',#858,10.);
#297=VECTOR('',#859,10.);
#298=VECTOR('',#866,10.);
#299=VECTOR('',#867,10.);
#300=VECTOR('',#868,10.);
#301=VECTOR('',#869,10.);
#302=VECTOR('',#872,10.);
#303=VECTOR('',#873,10.);
#304=VECTOR('',#874,10.);
#305=VECTOR('',#877,10.);
#306=VECTOR('',#878,10.);
#307=VECTOR('',#879,10.);
#308=VECTOR('',#882,10.);
#309=VECTOR('',#883,10.);
#310=CIRCLE('',#676,0.107701290884613);
#311=CIRCLE('',#677,0.107701290884613);
#312=VERTEX_POINT('',#890);
#313=VERTEX_POINT('',#892);
#314=VERTEX_POINT('',#897);
#315=VERTEX_POINT('',#898);
#316=VERTEX_POINT('',#900);
#317=VERTEX_POINT('',#904);
#318=VERTEX_POINT('',#905);
#319=VERTEX_POINT('',#910);
#320=VERTEX_POINT('',#911);
#321=VERTEX_POINT('',#913);
#322=VERTEX_POINT('',#917);
#323=VERTEX_POINT('',#918);
#324=VERTEX_POINT('',#923);
#325=VERTEX_POINT('',#924);
#326=VERTEX_POINT('',#926);
#327=VERTEX_POINT('',#930);
#328=VERTEX_POINT('',#931);
#329=VERTEX_POINT('',#939);
#330=VERTEX_POINT('',#940);
#331=VERTEX_POINT('',#942);
#332=VERTEX_POINT('',#946);
#333=VERTEX_POINT('',#947);
#334=VERTEX_POINT('',#971);
#335=VERTEX_POINT('',#972);
#336=VERTEX_POINT('',#974);
#337=VERTEX_POINT('',#976);
#338=VERTEX_POINT('',#980);
#339=VERTEX_POINT('',#982);
#340=VERTEX_POINT('',#986);
#341=VERTEX_POINT('',#988);
#342=VERTEX_POINT('',#992);
#343=VERTEX_POINT('',#994);
#344=VERTEX_POINT('',#998);
#345=VERTEX_POINT('',#1000);
#346=VERTEX_POINT('',#1009);
#347=VERTEX_POINT('',#1010);
#348=VERTEX_POINT('',#1012);
#349=VERTEX_POINT('',#1014);
#350=VERTEX_POINT('',#1018);
#351=VERTEX_POINT('',#1020);
#352=VERTEX_POINT('',#1024);
#353=VERTEX_POINT('',#1026);
#354=VERTEX_POINT('',#1030);
#355=VERTEX_POINT('',#1032);
#356=VERTEX_POINT('',#1041);
#357=VERTEX_POINT('',#1042);
#358=VERTEX_POINT('',#1044);
#359=VERTEX_POINT('',#1046);
#360=VERTEX_POINT('',#1050);
#361=VERTEX_POINT('',#1052);
#362=VERTEX_POINT('',#1056);
#363=VERTEX_POINT('',#1058);
#364=EDGE_CURVE('',#312,#312,#310,.T.);
#365=EDGE_CURVE('',#312,#313,#146,.T.);
#366=EDGE_CURVE('',#313,#313,#311,.T.);
#367=EDGE_CURVE('',#314,#315,#147,.T.);
#368=EDGE_CURVE('',#316,#314,#148,.T.);
#369=EDGE_CURVE('',#315,#316,#149,.T.);
#370=EDGE_CURVE('',#317,#318,#150,.T.);
#371=EDGE_CURVE('',#318,#316,#151,.T.);
#372=EDGE_CURVE('',#314,#317,#152,.T.);
#373=EDGE_CURVE('',#319,#320,#153,.T.);
#374=EDGE_CURVE('',#321,#319,#154,.T.);
#375=EDGE_CURVE('',#320,#321,#155,.T.);
#376=EDGE_CURVE('',#322,#323,#156,.T.);
#377=EDGE_CURVE('',#323,#321,#157,.T.);
#378=EDGE_CURVE('',#319,#322,#158,.T.);
#379=EDGE_CURVE('',#324,#325,#159,.T.);
#380=EDGE_CURVE('',#326,#324,#160,.T.);
#381=EDGE_CURVE('',#325,#326,#161,.T.);
#382=EDGE_CURVE('',#327,#328,#162,.T.);
#383=EDGE_CURVE('',#328,#326,#163,.T.);
#384=EDGE_CURVE('',#324,#327,#164,.T.);
#385=EDGE_CURVE('',#315,#325,#165,.T.);
#386=EDGE_CURVE('',#326,#314,#166,.T.);
#387=EDGE_CURVE('',#329,#330,#167,.T.);
#388=EDGE_CURVE('',#331,#329,#168,.T.);
#389=EDGE_CURVE('',#330,#331,#169,.T.);
#390=EDGE_CURVE('',#332,#333,#170,.T.);
#391=EDGE_CURVE('',#333,#331,#171,.T.);
#392=EDGE_CURVE('',#329,#332,#172,.T.);
#393=EDGE_CURVE('',#325,#330,#173,.T.);
#394=EDGE_CURVE('',#331,#324,#174,.T.);
#395=EDGE_CURVE('',#330,#320,#175,.T.);
#396=EDGE_CURVE('',#321,#329,#176,.T.);
#397=EDGE_CURVE('',#320,#315,#177,.T.);
#398=EDGE_CURVE('',#316,#319,#178,.T.);
#399=EDGE_CURVE('',#317,#328,#179,.T.);
#400=EDGE_CURVE('',#327,#333,#180,.T.);
#401=EDGE_CURVE('',#332,#323,#181,.T.);
#402=EDGE_CURVE('',#322,#318,#182,.T.);
#403=EDGE_CURVE('',#334,#335,#183,.T.);
#404=EDGE_CURVE('',#334,#336,#184,.T.);
#405=EDGE_CURVE('',#337,#336,#185,.T.);
#406=EDGE_CURVE('',#335,#337,#186,.T.);
#407=EDGE_CURVE('',#338,#335,#187,.T.);
#408=EDGE_CURVE('',#339,#337,#188,.T.);
#409=EDGE_CURVE('',#338,#339,#189,.T.);
#410=EDGE_CURVE('',#340,#338,#190,.T.);
#411=EDGE_CURVE('',#341,#339,#191,.T.);
#412=EDGE_CURVE('',#340,#341,#192,.T.);
#413=EDGE_CURVE('',#342,#340,#193,.T.);
#414=EDGE_CURVE('',#343,#341,#194,.T.);
#415=EDGE_CURVE('',#342,#343,#195,.T.);
#416=EDGE_CURVE('',#344,#342,#196,.T.);
#417=EDGE_CURVE('',#345,#343,#197,.T.);
#418=EDGE_CURVE('',#344,#345,#198,.T.);
#419=EDGE_CURVE('',#334,#344,#199,.T.);
#420=EDGE_CURVE('',#336,#345,#200,.T.);
#421=EDGE_CURVE('',#346,#347,#201,.T.);
#422=EDGE_CURVE('',#347,#348,#202,.T.);
#423=EDGE_CURVE('',#349,#348,#203,.T.);
#424=EDGE_CURVE('',#346,#349,#204,.T.);
#425=EDGE_CURVE('',#346,#350,#205,.T.);
#426=EDGE_CURVE('',#351,#349,#206,.T.);
#427=EDGE_CURVE('',#350,#351,#207,.T.);
#428=EDGE_CURVE('',#352,#350,#208,.T.);
#429=EDGE_CURVE('',#353,#351,#209,.T.);
#430=EDGE_CURVE('',#352,#353,#210,.T.);
#431=EDGE_CURVE('',#354,#352,#211,.T.);
#432=EDGE_CURVE('',#355,#353,#212,.T.);
#433=EDGE_CURVE('',#354,#355,#213,.T.);
#434=EDGE_CURVE('',#347,#354,#214,.T.);
#435=EDGE_CURVE('',#348,#355,#215,.T.);
#436=EDGE_CURVE('',#356,#357,#216,.T.);
#437=EDGE_CURVE('',#357,#358,#217,.T.);
#438=EDGE_CURVE('',#359,#358,#218,.T.);
#439=EDGE_CURVE('',#356,#359,#219,.T.);
#440=EDGE_CURVE('',#360,#356,#220,.T.);
#441=EDGE_CURVE('',#361,#359,#221,.T.);
#442=EDGE_CURVE('',#360,#361,#222,.T.);
#443=EDGE_CURVE('',#362,#360,#223,.T.);
#444=EDGE_CURVE('',#363,#361,#224,.T.);
#445=EDGE_CURVE('',#362,#363,#225,.T.);
#446=EDGE_CURVE('',#357,#362,#226,.T.);
#447=EDGE_CURVE('',#358,#363,#227,.T.);
#448=ORIENTED_EDGE('',*,*,#364,.F.);
#449=ORIENTED_EDGE('',*,*,#365,.T.);
#450=ORIENTED_EDGE('',*,*,#366,.T.);
#451=ORIENTED_EDGE('',*,*,#365,.F.);
#452=ORIENTED_EDGE('',*,*,#366,.F.);
#453=ORIENTED_EDGE('',*,*,#367,.F.);
#454=ORIENTED_EDGE('',*,*,#368,.F.);
#455=ORIENTED_EDGE('',*,*,#369,.F.);
#456=ORIENTED_EDGE('',*,*,#370,.T.);
#457=ORIENTED_EDGE('',*,*,#371,.T.);
#458=ORIENTED_EDGE('',*,*,#368,.T.);
#459=ORIENTED_EDGE('',*,*,#372,.T.);
#460=ORIENTED_EDGE('',*,*,#373,.F.);
#461=ORIENTED_EDGE('',*,*,#374,.F.);
#462=ORIENTED_EDGE('',*,*,#375,.F.);
#463=ORIENTED_EDGE('',*,*,#376,.T.);
#464=ORIENTED_EDGE('',*,*,#377,.T.);
#465=ORIENTED_EDGE('',*,*,#374,.T.);
#466=ORIENTED_EDGE('',*,*,#378,.T.);
#467=ORIENTED_EDGE('',*,*,#379,.F.);
#468=ORIENTED_EDGE('',*,*,#380,.F.);
#469=ORIENTED_EDGE('',*,*,#381,.F.);
#470=ORIENTED_EDGE('',*,*,#382,.T.);
#471=ORIENTED_EDGE('',*,*,#383,.T.);
#472=ORIENTED_EDGE('',*,*,#380,.T.);
#473=ORIENTED_EDGE('',*,*,#384,.T.);
#474=ORIENTED_EDGE('',*,*,#367,.T.);
#475=ORIENTED_EDGE('',*,*,#385,.T.);
#476=ORIENTED_EDGE('',*,*,#381,.T.);
#477=ORIENTED_EDGE('',*,*,#386,.T.);
#478=ORIENTED_EDGE('',*,*,#387,.F.);
#479=ORIENTED_EDGE('',*,*,#388,.F.);
#480=ORIENTED_EDGE('',*,*,#389,.F.);
#481=ORIENTED_EDGE('',*,*,#390,.T.);
#482=ORIENTED_EDGE('',*,*,#391,.T.);
#483=ORIENTED_EDGE('',*,*,#388,.T.);
#484=ORIENTED_EDGE('',*,*,#392,.T.);
#485=ORIENTED_EDGE('',*,*,#379,.T.);
#486=ORIENTED_EDGE('',*,*,#393,.T.);
#487=ORIENTED_EDGE('',*,*,#389,.T.);
#488=ORIENTED_EDGE('',*,*,#394,.T.);
#489=ORIENTED_EDGE('',*,*,#387,.T.);
#490=ORIENTED_EDGE('',*,*,#395,.T.);
#491=ORIENTED_EDGE('',*,*,#375,.T.);
#492=ORIENTED_EDGE('',*,*,#396,.T.);
#493=ORIENTED_EDGE('',*,*,#373,.T.);
#494=ORIENTED_EDGE('',*,*,#397,.T.);
#495=ORIENTED_EDGE('',*,*,#369,.T.);
#496=ORIENTED_EDGE('',*,*,#398,.T.);
#497=ORIENTED_EDGE('',*,*,#372,.F.);
#498=ORIENTED_EDGE('',*,*,#386,.F.);
#499=ORIENTED_EDGE('',*,*,#383,.F.);
#500=ORIENTED_EDGE('',*,*,#399,.F.);
#501=ORIENTED_EDGE('',*,*,#384,.F.);
#502=ORIENTED_EDGE('',*,*,#394,.F.);
#503=ORIENTED_EDGE('',*,*,#391,.F.);
#504=ORIENTED_EDGE('',*,*,#400,.F.);
#505=ORIENTED_EDGE('',*,*,#385,.F.);
#506=ORIENTED_EDGE('',*,*,#397,.F.);
#507=ORIENTED_EDGE('',*,*,#395,.F.);
#508=ORIENTED_EDGE('',*,*,#393,.F.);
#509=ORIENTED_EDGE('',*,*,#364,.T.);
#510=ORIENTED_EDGE('',*,*,#377,.F.);
#511=ORIENTED_EDGE('',*,*,#401,.F.);
#512=ORIENTED_EDGE('',*,*,#392,.F.);
#513=ORIENTED_EDGE('',*,*,#396,.F.);
#514=ORIENTED_EDGE('',*,*,#371,.F.);
#515=ORIENTED_EDGE('',*,*,#402,.F.);
#516=ORIENTED_EDGE('',*,*,#378,.F.);
#517=ORIENTED_EDGE('',*,*,#398,.F.);
#518=ORIENTED_EDGE('',*,*,#370,.F.);
#519=ORIENTED_EDGE('',*,*,#399,.T.);
#520=ORIENTED_EDGE('',*,*,#382,.F.);
#521=ORIENTED_EDGE('',*,*,#400,.T.);
#522=ORIENTED_EDGE('',*,*,#390,.F.);
#523=ORIENTED_EDGE('',*,*,#401,.T.);
#524=ORIENTED_EDGE('',*,*,#376,.F.);
#525=ORIENTED_EDGE('',*,*,#402,.T.);
#526=ORIENTED_EDGE('',*,*,#403,.F.);
#527=ORIENTED_EDGE('',*,*,#404,.T.);
#528=ORIENTED_EDGE('',*,*,#405,.F.);
#529=ORIENTED_EDGE('',*,*,#406,.F.);
#530=ORIENTED_EDGE('',*,*,#407,.T.);
#531=ORIENTED_EDGE('',*,*,#406,.T.);
#532=ORIENTED_EDGE('',*,*,#408,.F.);
#533=ORIENTED_EDGE('',*,*,#409,.F.);
#534=ORIENTED_EDGE('',*,*,#410,.T.);
#535=ORIENTED_EDGE('',*,*,#409,.T.);
#536=ORIENTED_EDGE('',*,*,#411,.F.);
#537=ORIENTED_EDGE('',*,*,#412,.F.);
#538=ORIENTED_EDGE('',*,*,#413,.T.);
#539=ORIENTED_EDGE('',*,*,#412,.T.);
#540=ORIENTED_EDGE('',*,*,#414,.F.);
#541=ORIENTED_EDGE('',*,*,#415,.F.);
#542=ORIENTED_EDGE('',*,*,#416,.T.);
#543=ORIENTED_EDGE('',*,*,#415,.T.);
#544=ORIENTED_EDGE('',*,*,#417,.F.);
#545=ORIENTED_EDGE('',*,*,#418,.F.);
#546=ORIENTED_EDGE('',*,*,#419,.T.);
#547=ORIENTED_EDGE('',*,*,#418,.T.);
#548=ORIENTED_EDGE('',*,*,#420,.F.);
#549=ORIENTED_EDGE('',*,*,#404,.F.);
#550=ORIENTED_EDGE('',*,*,#420,.T.);
#551=ORIENTED_EDGE('',*,*,#417,.T.);
#552=ORIENTED_EDGE('',*,*,#414,.T.);
#553=ORIENTED_EDGE('',*,*,#411,.T.);
#554=ORIENTED_EDGE('',*,*,#408,.T.);
#555=ORIENTED_EDGE('',*,*,#405,.T.);
#556=ORIENTED_EDGE('',*,*,#419,.F.);
#557=ORIENTED_EDGE('',*,*,#403,.T.);
#558=ORIENTED_EDGE('',*,*,#407,.F.);
#559=ORIENTED_EDGE('',*,*,#410,.F.);
#560=ORIENTED_EDGE('',*,*,#413,.F.);
#561=ORIENTED_EDGE('',*,*,#416,.F.);
#562=ORIENTED_EDGE('',*,*,#421,.T.);
#563=ORIENTED_EDGE('',*,*,#422,.T.);
#564=ORIENTED_EDGE('',*,*,#423,.F.);
#565=ORIENTED_EDGE('',*,*,#424,.F.);
#566=ORIENTED_EDGE('',*,*,#425,.F.);
#567=ORIENTED_EDGE('',*,*,#424,.T.);
#568=ORIENTED_EDGE('',*,*,#426,.F.);
#569=ORIENTED_EDGE('',*,*,#427,.F.);
#570=ORIENTED_EDGE('',*,*,#428,.T.);
#571=ORIENTED_EDGE('',*,*,#427,.T.);
#572=ORIENTED_EDGE('',*,*,#429,.F.);
#573=ORIENTED_EDGE('',*,*,#430,.F.);
#574=ORIENTED_EDGE('',*,*,#431,.T.);
#575=ORIENTED_EDGE('',*,*,#430,.T.);
#576=ORIENTED_EDGE('',*,*,#432,.F.);
#577=ORIENTED_EDGE('',*,*,#433,.F.);
#578=ORIENTED_EDGE('',*,*,#434,.T.);
#579=ORIENTED_EDGE('',*,*,#433,.T.);
#580=ORIENTED_EDGE('',*,*,#435,.F.);
#581=ORIENTED_EDGE('',*,*,#422,.F.);
#582=ORIENTED_EDGE('',*,*,#435,.T.);
#583=ORIENTED_EDGE('',*,*,#432,.T.);
#584=ORIENTED_EDGE('',*,*,#429,.T.);
#585=ORIENTED_EDGE('',*,*,#426,.T.);
#586=ORIENTED_EDGE('',*,*,#423,.T.);
#587=ORIENTED_EDGE('',*,*,#434,.F.);
#588=ORIENTED_EDGE('',*,*,#421,.F.);
#589=ORIENTED_EDGE('',*,*,#425,.T.);
#590=ORIENTED_EDGE('',*,*,#428,.F.);
#591=ORIENTED_EDGE('',*,*,#431,.F.);
#592=ORIENTED_EDGE('',*,*,#436,.T.);
#593=ORIENTED_EDGE('',*,*,#437,.T.);
#594=ORIENTED_EDGE('',*,*,#438,.F.);
#595=ORIENTED_EDGE('',*,*,#439,.F.);
#596=ORIENTED_EDGE('',*,*,#440,.T.);
#597=ORIENTED_EDGE('',*,*,#439,.T.);
#598=ORIENTED_EDGE('',*,*,#441,.F.);
#599=ORIENTED_EDGE('',*,*,#442,.F.);
#600=ORIENTED_EDGE('',*,*,#443,.T.);
#601=ORIENTED_EDGE('',*,*,#442,.T.);
#602=ORIENTED_EDGE('',*,*,#444,.F.);
#603=ORIENTED_EDGE('',*,*,#445,.F.);
#604=ORIENTED_EDGE('',*,*,#446,.T.);
#605=ORIENTED_EDGE('',*,*,#445,.T.);
#606=ORIENTED_EDGE('',*,*,#447,.F.);
#607=ORIENTED_EDGE('',*,*,#437,.F.);
#608=ORIENTED_EDGE('',*,*,#447,.T.);
#609=ORIENTED_EDGE('',*,*,#444,.T.);
#610=ORIENTED_EDGE('',*,*,#441,.T.);
#611=ORIENTED_EDGE('',*,*,#438,.T.);
#612=ORIENTED_EDGE('',*,*,#446,.F.);
#613=ORIENTED_EDGE('',*,*,#436,.F.);
#614=ORIENTED_EDGE('',*,*,#440,.F.);
#615=ORIENTED_EDGE('',*,*,#443,.F.);
#616=CYLINDRICAL_SURFACE('',#675,0.107701290884613);
#617=ADVANCED_FACE('',(#63),#616,.F.);
#618=ADVANCED_FACE('',(#64),#18,.T.);
#619=ADVANCED_FACE('',(#65),#19,.T.);
#620=ADVANCED_FACE('',(#66),#20,.T.);
#621=ADVANCED_FACE('',(#67),#21,.T.);
#622=ADVANCED_FACE('',(#68),#22,.T.);
#623=ADVANCED_FACE('',(#69),#23,.T.);
#624=ADVANCED_FACE('',(#70),#24,.T.);
#625=ADVANCED_FACE('',(#71),#25,.T.);
#626=ADVANCED_FACE('',(#72),#26,.T.);
#627=ADVANCED_FACE('',(#73),#27,.T.);
#628=ADVANCED_FACE('',(#74),#28,.T.);
#629=ADVANCED_FACE('',(#75),#29,.T.);
#630=ADVANCED_FACE('',(#76),#30,.T.);
#631=ADVANCED_FACE('',(#77),#31,.T.);
#632=ADVANCED_FACE('',(#78),#32,.T.);
#633=ADVANCED_FACE('',(#79,#17),#33,.T.);
#634=ADVANCED_FACE('',(#80),#34,.T.);
#635=ADVANCED_FACE('',(#81),#35,.T.);
#636=ADVANCED_FACE('',(#82),#36,.F.);
#637=ADVANCED_FACE('',(#83),#37,.T.);
#638=ADVANCED_FACE('',(#84),#38,.T.);
#639=ADVANCED_FACE('',(#85),#39,.T.);
#640=ADVANCED_FACE('',(#86),#40,.T.);
#641=ADVANCED_FACE('',(#87),#41,.T.);
#642=ADVANCED_FACE('',(#88),#42,.T.);
#643=ADVANCED_FACE('',(#89),#43,.T.);
#644=ADVANCED_FACE('',(#90),#44,.F.);
#645=ADVANCED_FACE('',(#91),#45,.T.);
#646=ADVANCED_FACE('',(#92),#46,.T.);
#647=ADVANCED_FACE('',(#93),#47,.T.);
#648=ADVANCED_FACE('',(#94),#48,.T.);
#649=ADVANCED_FACE('',(#95),#49,.T.);
#650=ADVANCED_FACE('',(#96),#50,.T.);
#651=ADVANCED_FACE('',(#97),#51,.F.);
#652=ADVANCED_FACE('',(#98),#52,.T.);
#653=ADVANCED_FACE('',(#99),#53,.T.);
#654=ADVANCED_FACE('',(#100),#54,.T.);
#655=ADVANCED_FACE('',(#101),#55,.T.);
#656=ADVANCED_FACE('',(#102),#56,.T.);
#657=ADVANCED_FACE('',(#103),#57,.F.);
#658=CLOSED_SHELL('',(#617,#618,#619,#620,#621,#622,#623,#624,#625,#626,
#627,#628,#629,#630,#631,#632,#633,#634,#635,#636));
#659=CLOSED_SHELL('',(#637,#638,#639,#640,#641,#642,#643,#644));
#660=CLOSED_SHELL('',(#645,#646,#647,#648,#649,#650,#651));
#661=CLOSED_SHELL('',(#652,#653,#654,#655,#656,#657));
#662=DERIVED_UNIT_ELEMENT(#664,1.);
#663=DERIVED_UNIT_ELEMENT(#1071,-3.);
#664=(
MASS_UNIT()
NAMED_UNIT(*)
SI_UNIT(.KILO.,.GRAM.)
);
#665=DERIVED_UNIT((#662,#663));
#666=MEASURE_REPRESENTATION_ITEM('density measure',
POSITIVE_RATIO_MEASURE(7850.),#665);
#667=PROPERTY_DEFINITION_REPRESENTATION(#672,#669);
#668=PROPERTY_DEFINITION_REPRESENTATION(#673,#670);
#669=REPRESENTATION('material name',(#671),#1068);
#670=REPRESENTATION('density',(#666),#1068);
#671=DESCRIPTIVE_REPRESENTATION_ITEM('Steel','Steel');
#672=PROPERTY_DEFINITION('material property','material name',#1078);
#673=PROPERTY_DEFINITION('material property','density of part',#1078);
#674=AXIS2_PLACEMENT_3D('',#888,#718,#719);
#675=AXIS2_PLACEMENT_3D('',#889,#720,#721);
#676=AXIS2_PLACEMENT_3D('',#891,#722,#723);
#677=AXIS2_PLACEMENT_3D('',#894,#725,#726);
#678=AXIS2_PLACEMENT_3D('',#895,#727,#728);
#679=AXIS2_PLACEMENT_3D('',#896,#729,#730);
#680=AXIS2_PLACEMENT_3D('',#903,#734,#735);
#681=AXIS2_PLACEMENT_3D('',#909,#739,#740);
#682=AXIS2_PLACEMENT_3D('',#916,#744,#745);
#683=AXIS2_PLACEMENT_3D('',#922,#749,#750);
#684=AXIS2_PLACEMENT_3D('',#929,#754,#755);
#685=AXIS2_PLACEMENT_3D('',#935,#759,#760);
#686=AXIS2_PLACEMENT_3D('',#938,#763,#764);
#687=AXIS2_PLACEMENT_3D('',#945,#768,#769);
#688=AXIS2_PLACEMENT_3D('',#951,#773,#774);
#689=AXIS2_PLACEMENT_3D('',#954,#777,#778);
#690=AXIS2_PLACEMENT_3D('',#957,#781,#782);
#691=AXIS2_PLACEMENT_3D('',#960,#785,#786);
#692=AXIS2_PLACEMENT_3D('',#962,#788,#789);
#693=AXIS2_PLACEMENT_3D('',#964,#791,#792);
#694=AXIS2_PLACEMENT_3D('',#965,#793,#794);
#695=AXIS2_PLACEMENT_3D('',#967,#796,#797);
#696=AXIS2_PLACEMENT_3D('',#969,#799,#800);
#697=AXIS2_PLACEMENT_3D('',#970,#801,#802);
#698=AXIS2_PLACEMENT_3D('',#979,#807,#808);
#699=AXIS2_PLACEMENT_3D('',#985,#812,#813);
#700=AXIS2_PLACEMENT_3D('',#991,#817,#818);
#701=AXIS2_PLACEMENT_3D('',#997,#822,#823);
#702=AXIS2_PLACEMENT_3D('',#1003,#827,#828);
#703=AXIS2_PLACEMENT_3D('',#1006,#831,#832);
#704=AXIS2_PLACEMENT_3D('',#1007,#833,#834);
#705=AXIS2_PLACEMENT_3D('',#1008,#835,#836);
#706=AXIS2_PLACEMENT_3D('',#1017,#841,#842);
#707=AXIS2_PLACEMENT_3D('',#1023,#846,#847);
#708=AXIS2_PLACEMENT_3D('',#1029,#851,#852);
#709=AXIS2_PLACEMENT_3D('',#1035,#856,#857);
#710=AXIS2_PLACEMENT_3D('',#1038,#860,#861);
#711=AXIS2_PLACEMENT_3D('',#1039,#862,#863);
#712=AXIS2_PLACEMENT_3D('',#1040,#864,#865);
#713=AXIS2_PLACEMENT_3D('',#1049,#870,#871);
#714=AXIS2_PLACEMENT_3D('',#1055,#875,#876);
#715=AXIS2_PLACEMENT_3D('',#1061,#880,#881);
#716=AXIS2_PLACEMENT_3D('',#1064,#884,#885);
#717=AXIS2_PLACEMENT_3D('',#1065,#886,#887);
#718=DIRECTION('axis',(0.,0.,1.));
#719=DIRECTION('refdir',(1.,0.,0.));
#720=DIRECTION('center_axis',(0.,0.,-1.));
#721=DIRECTION('ref_axis',(-1.,0.,0.));
#722=DIRECTION('center_axis',(0.,0.,-1.));
#723=DIRECTION('ref_axis',(-1.,0.,0.));
#724=DIRECTION('',(0.,0.,-1.));
#725=DIRECTION('center_axis',(0.,0.,-1.));
#726=DIRECTION('ref_axis',(-1.,0.,0.));
#727=DIRECTION('center_axis',(0.,0.,1.));
#728=DIRECTION('ref_axis',(-1.,0.,0.));
#729=DIRECTION('center_axis',(-0.577350269189625,-0.577350269189625,0.577350269189627));
#730=DIRECTION('ref_axis',(0.707106781186549,0.,0.707106781186546));
#731=DIRECTION('',(0.707106781186544,0.,0.707106781186551));
#732=DIRECTION('',(-0.707106781186548,0.707106781186548,0.));
#733=DIRECTION('',(0.,-0.707106781186549,-0.707106781186546));
#734=DIRECTION('center_axis',(-0.707106781186548,-0.707106781186548,0.));
#735=DIRECTION('ref_axis',(0.,0.,1.));
#736=DIRECTION('',(0.707106781186548,-0.707106781186548,0.));
#737=DIRECTION('',(0.,0.,1.));
#738=DIRECTION('',(0.,0.,-1.));
#739=DIRECTION('center_axis',(0.577350269189625,-0.577350269189625,0.577350269189627));
#740=DIRECTION('ref_axis',(0.707106781186549,0.,-0.707106781186546));
#741=DIRECTION('',(0.,0.707106781186549,0.707106781186546));
#742=DIRECTION('',(-0.707106781186548,-0.707106781186548,0.));
#743=DIRECTION('',(0.707106781186544,-8.92097987888512E-15,-0.707106781186551));
#744=DIRECTION('center_axis',(0.707106781186548,-0.707106781186548,0.));
#745=DIRECTION('ref_axis',(0.,0.,-1.));
#746=DIRECTION('',(0.707106781186548,0.707106781186548,0.));
#747=DIRECTION('',(0.,0.,1.));
#748=DIRECTION('',(0.,0.,-1.));
#749=DIRECTION('center_axis',(-0.577350269189625,0.577350269189625,0.577350269189627));
#750=DIRECTION('ref_axis',(0.707106781186549,0.,0.707106781186546));
#751=DIRECTION('',(0.,-0.707106781186549,0.707106781186546));
#752=DIRECTION('',(0.707106781186548,0.707106781186548,0.));
#753=DIRECTION('',(-0.707106781186544,8.92097987888512E-15,-0.707106781186551));
#754=DIRECTION('center_axis',(-0.707106781186548,0.707106781186548,0.));
#755=DIRECTION('ref_axis',(0.,0.,1.));
#756=DIRECTION('',(-0.707106781186548,-0.707106781186548,0.));
#757=DIRECTION('',(0.,0.,1.));
#758=DIRECTION('',(0.,0.,-1.));
#759=DIRECTION('center_axis',(-0.707106781186551,0.,0.707106781186544));
#760=DIRECTION('ref_axis',(0.707106781186544,0.,0.707106781186551));
#761=DIRECTION('',(0.,1.,0.));
#762=DIRECTION('',(0.,-1.,0.));
#763=DIRECTION('center_axis',(0.577350269189625,0.577350269189625,0.577350269189627));
#764=DIRECTION('ref_axis',(0.707106781186549,0.,-0.707106781186546));
#765=DIRECTION('',(-0.707106781186544,0.,0.707106781186551));
#766=DIRECTION('',(0.707106781186548,-0.707106781186548,0.));
#767=DIRECTION('',(0.,0.707106781186549,-0.707106781186546));
#768=DIRECTION('center_axis',(0.707106781186548,0.707106781186548,0.));
#769=DIRECTION('ref_axis',(0.,0.,-1.));
#770=DIRECTION('',(-0.707106781186548,0.707106781186548,0.));
#771=DIRECTION('',(0.,0.,1.));
#772=DIRECTION('',(0.,0.,-1.));
#773=DIRECTION('center_axis',(0.,0.707106781186546,0.707106781186549));
#774=DIRECTION('ref_axis',(1.,0.,0.));
#775=DIRECTION('',(1.,0.,0.));
#776=DIRECTION('',(-1.,0.,0.));
#777=DIRECTION('center_axis',(0.707106781186551,0.,0.707106781186544));
#778=DIRECTION('ref_axis',(0.707106781186544,0.,-0.707106781186551));
#779=DIRECTION('',(0.,-1.,0.));
#780=DIRECTION('',(0.,1.,0.));
#781=DIRECTION('center_axis',(0.,-0.707106781186546,0.707106781186549));
#782=DIRECTION('ref_axis',(1.,0.,0.));
#783=DIRECTION('',(-1.,0.,0.));
#784=DIRECTION('',(1.,0.,0.));
#785=DIRECTION('center_axis',(-1.,0.,0.));
#786=DIRECTION('ref_axis',(0.,-1.,0.));
#787=DIRECTION('',(0.,1.,0.));
#788=DIRECTION('center_axis',(0.,1.,0.));
#789=DIRECTION('ref_axis',(-1.,0.,0.));
#790=DIRECTION('',(1.,0.,0.));
#791=DIRECTION('center_axis',(0.,0.,1.));
#792=DIRECTION('ref_axis',(1.,0.,0.));
#793=DIRECTION('center_axis',(1.,0.,0.));
#794=DIRECTION('ref_axis',(0.,1.,0.));
#795=DIRECTION('',(0.,-1.,0.));
#796=DIRECTION('center_axis',(0.,-1.,0.));
#797=DIRECTION('ref_axis',(1.,0.,0.));
#798=DIRECTION('',(-1.,0.,0.));
#799=DIRECTION('center_axis',(0.,0.,1.));
#800=DIRECTION('ref_axis',(1.,0.,0.));
#801=DIRECTION('center_axis',(-1.,0.,0.));
#802=DIRECTION('ref_axis',(0.,-1.,0.));
#803=DIRECTION('',(0.,1.,0.));
#804=DIRECTION('',(0.,0.,1.));
#805=DIRECTION('',(0.,-1.,0.));
#806=DIRECTION('',(0.,0.,1.));
#807=DIRECTION('center_axis',(-0.706918307804559,-0.707295204345921,0.));
#808=DIRECTION('ref_axis',(0.707295204345921,-0.706918307804559,0.));
#809=DIRECTION('',(0.707295204345921,-0.706918307804559,0.));
#810=DIRECTION('',(0.707295204345921,-0.706918307804559,0.));
#811=DIRECTION('',(0.,0.,1.));
#812=DIRECTION('center_axis',(-1.,0.,0.));
#813=DIRECTION('ref_axis',(0.,-1.,0.));
#814=DIRECTION('',(0.,-1.,0.));
#815=DIRECTION('',(0.,-1.,0.));
#816=DIRECTION('',(0.,0.,1.));
#817=DIRECTION('center_axis',(0.,1.,0.));
#818=DIRECTION('ref_axis',(-1.,0.,0.));
#819=DIRECTION('',(-1.,0.,0.));
#820=DIRECTION('',(-1.,0.,0.));
#821=DIRECTION('',(0.,0.,1.));
#822=DIRECTION('center_axis',(1.,0.,0.));
#823=DIRECTION('ref_axis',(0.,1.,0.));
#824=DIRECTION('',(0.,1.,0.));
#825=DIRECTION('',(0.,1.,0.));
#826=DIRECTION('',(0.,0.,1.));
#827=DIRECTION('center_axis',(0.,-1.,0.));
#828=DIRECTION('ref_axis',(1.,0.,0.));
#829=DIRECTION('',(1.,0.,0.));
#830=DIRECTION('',(1.,0.,0.));
#831=DIRECTION('center_axis',(0.,0.,1.));
#832=DIRECTION('ref_axis',(1.,0.,0.));
#833=DIRECTION('center_axis',(0.,0.,1.));
#834=DIRECTION('ref_axis',(-1.,0.,0.));
#835=DIRECTION('center_axis',(0.,1.,0.));
#836=DIRECTION('ref_axis',(-1.,0.,0.));
#837=DIRECTION('',(-1.,0.,0.));
#838=DIRECTION('',(0.,0.,1.));
#839=DIRECTION('',(-1.,0.,0.));
#840=DIRECTION('',(0.,0.,1.));
#841=DIRECTION('center_axis',(0.707106781186548,0.707106781186548,0.));
#842=DIRECTION('ref_axis',(-0.707106781186548,0.707106781186548,0.));
#843=DIRECTION('',(0.707106781186548,-0.707106781186548,0.));
#844=DIRECTION('',(-0.707106781186548,0.707106781186548,0.));
#845=DIRECTION('',(0.,0.,1.));
#846=DIRECTION('center_axis',(1.,0.,0.));
#847=DIRECTION('ref_axis',(0.,1.,0.));
#848=DIRECTION('',(0.,1.,0.));
#849=DIRECTION('',(0.,1.,0.));
#850=DIRECTION('',(0.,0.,1.));
#851=DIRECTION('center_axis',(0.,-1.,0.));
#852=DIRECTION('ref_axis',(1.,0.,0.));
#853=DIRECTION('',(1.,0.,0.));
#854=DIRECTION('',(1.,0.,0.));
#855=DIRECTION('',(0.,0.,1.));
#856=DIRECTION('center_axis',(-1.,0.,0.));
#857=DIRECTION('ref_axis',(0.,-1.,0.));
#858=DIRECTION('',(0.,-1.,0.));
#859=DIRECTION('',(0.,-1.,0.));
#860=DIRECTION('center_axis',(0.,0.,1.));
#861=DIRECTION('ref_axis',(1.,0.,0.));
#862=DIRECTION('center_axis',(0.,0.,1.));
#863=DIRECTION('ref_axis',(-1.,0.,0.));
#864=DIRECTION('center_axis',(0.,-1.,0.));
#865=DIRECTION('ref_axis',(1.,0.,0.));
#866=DIRECTION('',(1.,0.,0.));
#867=DIRECTION('',(0.,0.,1.));
#868=DIRECTION('',(1.,0.,0.));
#869=DIRECTION('',(0.,0.,1.));
#870=DIRECTION('center_axis',(-1.,0.,0.));
#871=DIRECTION('ref_axis',(0.,-1.,0.));
#872=DIRECTION('',(0.,-1.,0.));
#873=DIRECTION('',(0.,-1.,0.));
#874=DIRECTION('',(0.,0.,1.));
#875=DIRECTION('center_axis',(0.,1.,0.));
#876=DIRECTION('ref_axis',(-1.,0.,0.));
#877=DIRECTION('',(-1.,0.,0.));
#878=DIRECTION('',(-1.,0.,0.));
#879=DIRECTION('',(0.,0.,1.));
#880=DIRECTION('center_axis',(1.,0.,0.));
#881=DIRECTION('ref_axis',(0.,1.,0.));
#882=DIRECTION('',(0.,1.,0.));
#883=DIRECTION('',(0.,1.,0.));
#884=DIRECTION('center_axis',(0.,0.,1.));
#885=DIRECTION('ref_axis',(1.,0.,0.));
#886=DIRECTION('center_axis',(0.,0.,1.));
#887=DIRECTION('ref_axis',(-1.,0.,0.));
#888=CARTESIAN_POINT('',(0.,0.,0.));
#889=CARTESIAN_POINT('Origin',(1.79256458577574,1.54494219018263,0.59));
#890=CARTESIAN_POINT('',(1.90026587666035,1.54494219018263,0.59));
#891=CARTESIAN_POINT('Origin',(1.79256458577574,1.54494219018263,0.59));
#892=CARTESIAN_POINT('',(1.90026587666035,1.54494219018263,0.58));
#893=CARTESIAN_POINT('',(1.90026587666035,1.54494219018263,0.59));
#894=CARTESIAN_POINT('Origin',(1.79256458577574,1.54494219018263,0.58));
#895=CARTESIAN_POINT('Origin',(1.79256458577574,1.54494219018263,0.58));
#896=CARTESIAN_POINT('Origin',(-2.978,-2.,0.568));
#897=CARTESIAN_POINT('',(-3.,-1.978,0.568));
#898=CARTESIAN_POINT('',(-2.978,-1.978,0.59));
#899=CARTESIAN_POINT('',(-3.,-1.978,0.568));
#900=CARTESIAN_POINT('',(-2.978,-2.,0.568));
#901=CARTESIAN_POINT('',(-2.978,-2.,0.568));
#902=CARTESIAN_POINT('',(-2.978,-1.978,0.59));
#903=CARTESIAN_POINT('Origin',(-2.989,-1.989,0.));
#904=CARTESIAN_POINT('',(-3.,-1.978,0.));
#905=CARTESIAN_POINT('',(-2.978,-2.,0.));
#906=CARTESIAN_POINT('',(-2.739,-2.239,0.));
#907=CARTESIAN_POINT('',(-2.978,-2.,0.));
#908=CARTESIAN_POINT('',(-3.,-1.978,0.));
#909=CARTESIAN_POINT('Origin',(3.,-1.978,0.568));
#910=CARTESIAN_POINT('',(2.978,-2.,0.568));
#911=CARTESIAN_POINT('',(2.978,-1.978,0.59));
#912=CARTESIAN_POINT('',(2.978,-2.,0.568));
#913=CARTESIAN_POINT('',(3.,-1.978,0.568));
#914=CARTESIAN_POINT('',(3.,-1.978,0.568));
#915=CARTESIAN_POINT('',(2.978,-1.978,0.59));
#916=CARTESIAN_POINT('Origin',(2.989,-1.989,0.));
#917=CARTESIAN_POINT('',(2.978,-2.,0.));
#918=CARTESIAN_POINT('',(3.,-1.978,0.));
#919=CARTESIAN_POINT('',(2.739,-2.239,0.));
#920=CARTESIAN_POINT('',(3.,-1.978,0.));
#921=CARTESIAN_POINT('',(2.978,-2.,0.));
#922=CARTESIAN_POINT('Origin',(-3.,1.978,0.568));
#923=CARTESIAN_POINT('',(-2.978,2.,0.568));
#924=CARTESIAN_POINT('',(-2.978,1.978,0.59));
#925=CARTESIAN_POINT('',(-2.978,2.,0.568));
#926=CARTESIAN_POINT('',(-3.,1.978,0.568));
#927=CARTESIAN_POINT('',(-3.,1.978,0.568));
#928=CARTESIAN_POINT('',(-2.978,1.978,0.59));
#929=CARTESIAN_POINT('Origin',(-2.989,1.989,0.));
#930=CARTESIAN_POINT('',(-2.978,2.,0.));
#931=CARTESIAN_POINT('',(-3.,1.978,0.));
#932=CARTESIAN_POINT('',(-2.739,2.239,0.));
#933=CARTESIAN_POINT('',(-3.,1.978,0.));
#934=CARTESIAN_POINT('',(-2.978,2.,0.));
#935=CARTESIAN_POINT('Origin',(-2.989,1.,0.579));
#936=CARTESIAN_POINT('',(-2.978,1.,0.59));
#937=CARTESIAN_POINT('',(-3.,1.,0.568));
#938=CARTESIAN_POINT('Origin',(2.978,2.,0.568));
#939=CARTESIAN_POINT('',(3.,1.978,0.568));
#940=CARTESIAN_POINT('',(2.978,1.978,0.59));
#941=CARTESIAN_POINT('',(3.,1.978,0.568));
#942=CARTESIAN_POINT('',(2.978,2.,0.568));
#943=CARTESIAN_POINT('',(2.978,2.,0.568));
#944=CARTESIAN_POINT('',(2.978,1.978,0.59));
#945=CARTESIAN_POINT('Origin',(2.989,1.989,0.));
#946=CARTESIAN_POINT('',(3.,1.978,0.));
#947=CARTESIAN_POINT('',(2.978,2.,0.));
#948=CARTESIAN_POINT('',(2.739,2.239,0.));
#949=CARTESIAN_POINT('',(2.978,2.,0.));
#950=CARTESIAN_POINT('',(3.,1.978,0.));
#951=CARTESIAN_POINT('Origin',(1.5,1.989,0.579));
#952=CARTESIAN_POINT('',(1.5,1.978,0.59));
#953=CARTESIAN_POINT('',(1.5,2.,0.568));
#954=CARTESIAN_POINT('Origin',(2.989,-1.,0.579));
#955=CARTESIAN_POINT('',(2.978,-1.,0.59));
#956=CARTESIAN_POINT('',(3.,-1.,0.568));
#957=CARTESIAN_POINT('Origin',(-1.5,-1.989,0.579));
#958=CARTESIAN_POINT('',(-1.5,-1.978,0.59));
#959=CARTESIAN_POINT('',(-1.5,-2.,0.568));
#960=CARTESIAN_POINT('Origin',(-3.,2.,0.));
#961=CARTESIAN_POINT('',(-3.,-2.,0.));
#962=CARTESIAN_POINT('Origin',(3.,2.,0.));
#963=CARTESIAN_POINT('',(-3.,2.,0.));
#964=CARTESIAN_POINT('Origin',(-2.22044604925031E-15,0.,0.59));
#965=CARTESIAN_POINT('Origin',(3.,-2.,0.));
#966=CARTESIAN_POINT('',(3.,2.,0.));
#967=CARTESIAN_POINT('Origin',(-3.,-2.,0.));
#968=CARTESIAN_POINT('',(3.,-2.,0.));
#969=CARTESIAN_POINT('Origin',(-2.22044604925031E-15,0.,0.));
#970=CARTESIAN_POINT('Origin',(2.27,-1.14431575566085,0.59));
#971=CARTESIAN_POINT('',(2.27,-1.75,0.59));
#972=CARTESIAN_POINT('',(2.27,-1.14431575566085,0.59));
#973=CARTESIAN_POINT('',(2.27,-1.75,0.59));
#974=CARTESIAN_POINT('',(2.27,-1.75,0.6));
#975=CARTESIAN_POINT('',(2.27,-1.75,0.59));
#976=CARTESIAN_POINT('',(2.27,-1.14431575566085,0.6));
#977=CARTESIAN_POINT('',(2.27,-1.75,0.6));
#978=CARTESIAN_POINT('',(2.27,-1.14431575566085,0.59));
#979=CARTESIAN_POINT('Origin',(2.09,-0.964411672297965,0.59));
#980=CARTESIAN_POINT('',(2.09,-0.964411672297965,0.59));
#981=CARTESIAN_POINT('',(2.09,-0.964411672297965,0.59));
#982=CARTESIAN_POINT('',(2.09,-0.964411672297965,0.6));
#983=CARTESIAN_POINT('',(2.09,-0.964411672297965,0.6));
#984=CARTESIAN_POINT('',(2.09,-0.964411672297965,0.59));
#985=CARTESIAN_POINT('Origin',(2.09,1.75,0.59));
#986=CARTESIAN_POINT('',(2.09,1.75,0.59));
#987=CARTESIAN_POINT('',(2.09,1.75,0.59));
#988=CARTESIAN_POINT('',(2.09,1.75,0.6));
#989=CARTESIAN_POINT('',(2.09,1.75,0.6));
#990=CARTESIAN_POINT('',(2.09,1.75,0.59));
#991=CARTESIAN_POINT('Origin',(2.75,1.75,0.59));
#992=CARTESIAN_POINT('',(2.75,1.75,0.59));
#993=CARTESIAN_POINT('',(2.75,1.75,0.59));
#994=CARTESIAN_POINT('',(2.75,1.75,0.6));
#995=CARTESIAN_POINT('',(2.75,1.75,0.6));
#996=CARTESIAN_POINT('',(2.75,1.75,0.59));
#997=CARTESIAN_POINT('Origin',(2.75,-1.75,0.59));
#998=CARTESIAN_POINT('',(2.75,-1.75,0.59));
#999=CARTESIAN_POINT('',(2.75,-1.75,0.59));
#1000=CARTESIAN_POINT('',(2.75,-1.75,0.6));
#1001=CARTESIAN_POINT('',(2.75,-1.75,0.6));
#1002=CARTESIAN_POINT('',(2.75,-1.75,0.59));
#1003=CARTESIAN_POINT('Origin',(2.27,-1.75,0.59));
#1004=CARTESIAN_POINT('',(2.27,-1.75,0.59));
#1005=CARTESIAN_POINT('',(2.27,-1.75,0.6));
#1006=CARTESIAN_POINT('Origin',(2.42,1.66533453693773E-15,0.6));
#1007=CARTESIAN_POINT('Origin',(2.42,1.66533453693773E-15,0.59));
#1008=CARTESIAN_POINT('Origin',(1.14442699663855,-0.33,0.59));
#1009=CARTESIAN_POINT('',(1.14442699663855,-0.33,0.59));
#1010=CARTESIAN_POINT('',(0.95,-0.33,0.59));
#1011=CARTESIAN_POINT('',(1.14442699663855,-0.33,0.59));
#1012=CARTESIAN_POINT('',(0.95,-0.33,0.6));
#1013=CARTESIAN_POINT('',(0.95,-0.33,0.59));
#1014=CARTESIAN_POINT('',(1.14442699663855,-0.33,0.6));
#1015=CARTESIAN_POINT('',(1.14442699663855,-0.33,0.6));
#1016=CARTESIAN_POINT('',(1.14442699663855,-0.33,0.59));
#1017=CARTESIAN_POINT('Origin',(1.87,-1.05557300336145,0.59));
#1018=CARTESIAN_POINT('',(1.87,-1.05557300336145,0.59));
#1019=CARTESIAN_POINT('',(1.14442699663855,-0.33,0.59));
#1020=CARTESIAN_POINT('',(1.87,-1.05557300336145,0.6));
#1021=CARTESIAN_POINT('',(1.14442699663855,-0.33,0.6));
#1022=CARTESIAN_POINT('',(1.87,-1.05557300336145,0.59));
#1023=CARTESIAN_POINT('Origin',(1.87,-1.65,0.59));
#1024=CARTESIAN_POINT('',(1.87,-1.65,0.59));
#1025=CARTESIAN_POINT('',(1.87,-1.65,0.59));
#1026=CARTESIAN_POINT('',(1.87,-1.65,0.6));
#1027=CARTESIAN_POINT('',(1.87,-1.65,0.6));
#1028=CARTESIAN_POINT('',(1.87,-1.65,0.59));
#1029=CARTESIAN_POINT('Origin',(0.95,-1.65,0.59));
#1030=CARTESIAN_POINT('',(0.95,-1.65,0.59));
#1031=CARTESIAN_POINT('',(0.95,-1.65,0.59));
#1032=CARTESIAN_POINT('',(0.95,-1.65,0.6));
#1033=CARTESIAN_POINT('',(0.95,-1.65,0.6));
#1034=CARTESIAN_POINT('',(0.95,-1.65,0.59));
#1035=CARTESIAN_POINT('Origin',(0.95,-0.33,0.59));
#1036=CARTESIAN_POINT('',(0.95,-0.33,0.59));
#1037=CARTESIAN_POINT('',(0.95,-0.33,0.6));
#1038=CARTESIAN_POINT('Origin',(1.41,-0.99,0.6));
#1039=CARTESIAN_POINT('Origin',(1.41,-0.99,0.59));
#1040=CARTESIAN_POINT('Origin',(-2.65,-1.65,0.59));
#1041=CARTESIAN_POINT('',(-2.65,-1.65,0.59));
#1042=CARTESIAN_POINT('',(0.65,-1.65,0.59));
#1043=CARTESIAN_POINT('',(-2.65,-1.65,0.59));
#1044=CARTESIAN_POINT('',(0.65,-1.65,0.6));
#1045=CARTESIAN_POINT('',(0.65,-1.65,0.59));
#1046=CARTESIAN_POINT('',(-2.65,-1.65,0.6));
#1047=CARTESIAN_POINT('',(-2.65,-1.65,0.6));
#1048=CARTESIAN_POINT('',(-2.65,-1.65,0.59));
#1049=CARTESIAN_POINT('Origin',(-2.65,1.65,0.59));
#1050=CARTESIAN_POINT('',(-2.65,1.65,0.59));
#1051=CARTESIAN_POINT('',(-2.65,1.65,0.59));
#1052=CARTESIAN_POINT('',(-2.65,1.65,0.6));
#1053=CARTESIAN_POINT('',(-2.65,1.65,0.6));
#1054=CARTESIAN_POINT('',(-2.65,1.65,0.59));
#1055=CARTESIAN_POINT('Origin',(0.65,1.65,0.59));
#1056=CARTESIAN_POINT('',(0.65,1.65,0.59));
#1057=CARTESIAN_POINT('',(0.65,1.65,0.59));
#1058=CARTESIAN_POINT('',(0.65,1.65,0.6));
#1059=CARTESIAN_POINT('',(0.65,1.65,0.6));
#1060=CARTESIAN_POINT('',(0.65,1.65,0.59));
#1061=CARTESIAN_POINT('Origin',(0.65,-1.65,0.59));
#1062=CARTESIAN_POINT('',(0.65,-1.65,0.59));
#1063=CARTESIAN_POINT('',(0.65,-1.65,0.6));
#1064=CARTESIAN_POINT('Origin',(-1.,0.,0.6));
#1065=CARTESIAN_POINT('Origin',(-1.,0.,0.59));
#1066=UNCERTAINTY_MEASURE_WITH_UNIT(LENGTH_MEASURE(0.01),#1070,
'DISTANCE_ACCURACY_VALUE',
'Maximum model space distance between geometric entities at asserted c
onnectivities');
#1067=UNCERTAINTY_MEASURE_WITH_UNIT(LENGTH_MEASURE(0.01),#1070,
'DISTANCE_ACCURACY_VALUE',
'Maximum model space distance between geometric entities at asserted c
onnectivities');
#1068=(
GEOMETRIC_REPRESENTATION_CONTEXT(3)
GLOBAL_UNCERTAINTY_ASSIGNED_CONTEXT((#1066))
GLOBAL_UNIT_ASSIGNED_CONTEXT((#1070,#1072,#1073))
REPRESENTATION_CONTEXT('','3D')
);
#1069=(
GEOMETRIC_REPRESENTATION_CONTEXT(3)
GLOBAL_UNCERTAINTY_ASSIGNED_CONTEXT((#1067))
GLOBAL_UNIT_ASSIGNED_CONTEXT((#1070,#1072,#1073))
REPRESENTATION_CONTEXT('','3D')
);
#1070=(
LENGTH_UNIT()
NAMED_UNIT(*)
SI_UNIT(.MILLI.,.METRE.)
);
#1071=(
LENGTH_UNIT()
NAMED_UNIT(*)
SI_UNIT($,.METRE.)
);
#1072=(
NAMED_UNIT(*)
PLANE_ANGLE_UNIT()
SI_UNIT($,.RADIAN.)
);
#1073=(
NAMED_UNIT(*)
SI_UNIT($,.STERADIAN.)
SOLID_ANGLE_UNIT()
);
#1074=SHAPE_DEFINITION_REPRESENTATION(#1075,#1076);
#1075=PRODUCT_DEFINITION_SHAPE('',$,#1078);
#1076=SHAPE_REPRESENTATION('',(#674),#1068);
#1077=PRODUCT_DEFINITION_CONTEXT('part definition',#1082,'design');
#1078=PRODUCT_DEFINITION('TDA22594A','TDA22594A v4',#1079,#1077);
#1079=PRODUCT_DEFINITION_FORMATION('',$,#1084);
#1080=PRODUCT_RELATED_PRODUCT_CATEGORY('TDA22594A v4','TDA22594A v4',(#1084));
#1081=APPLICATION_PROTOCOL_DEFINITION('international standard',
'automotive_design',2009,#1082);
#1082=APPLICATION_CONTEXT(
'Core Data for Automotive Mechanical Design Process');
#1083=PRODUCT_CONTEXT('part definition',#1082,'mechanical');
#1084=PRODUCT('TDA22594A','TDA22594A v4',$,(#1083));
#1085=PRESENTATION_STYLE_ASSIGNMENT((#1089));
#1086=PRESENTATION_STYLE_ASSIGNMENT((#1090));
#1087=PRESENTATION_STYLE_ASSIGNMENT((#1091));
#1088=PRESENTATION_STYLE_ASSIGNMENT((#1092));
#1089=SURFACE_STYLE_USAGE(.BOTH.,#1093);
#1090=SURFACE_STYLE_USAGE(.BOTH.,#1094);
#1091=SURFACE_STYLE_USAGE(.BOTH.,#1095);
#1092=SURFACE_STYLE_USAGE(.BOTH.,#1096);
#1093=SURFACE_SIDE_STYLE('',(#1097));
#1094=SURFACE_SIDE_STYLE('',(#1098));
#1095=SURFACE_SIDE_STYLE('',(#1099));
#1096=SURFACE_SIDE_STYLE('',(#1100));
#1097=SURFACE_STYLE_FILL_AREA(#1101);
#1098=SURFACE_STYLE_FILL_AREA(#1102);
#1099=SURFACE_STYLE_FILL_AREA(#1103);
#1100=SURFACE_STYLE_FILL_AREA(#1104);
#1101=FILL_AREA_STYLE('Steel - Satin',(#1105));
#1102=FILL_AREA_STYLE(
'PA 11 - Nylon- HP 11-30 (with EOS P 396 3D Printer)',(#1106));
#1103=FILL_AREA_STYLE('Aluminum - Bead Blasted',(#1107));
#1104=FILL_AREA_STYLE('Brass - Polished',(#1108));
#1105=FILL_AREA_STYLE_COLOUR('Steel - Satin',#1109);
#1106=FILL_AREA_STYLE_COLOUR(
'PA 11 - Nylon- HP 11-30 (with EOS P 396 3D Printer)',#1110);
#1107=FILL_AREA_STYLE_COLOUR('Aluminum - Bead Blasted',#1111);
#1108=FILL_AREA_STYLE_COLOUR('Brass - Polished',#1112);
#1109=COLOUR_RGB('Steel - Satin',0.627450980392157,0.627450980392157,0.627450980392157);
#1110=COLOUR_RGB('PA 11 - Nylon- HP 11-30 (with EOS P 396 3D Printer)',
0.247058823529412,0.247058823529412,0.247058823529412);
#1111=COLOUR_RGB('Aluminum - Bead Blasted',0.96078431372549,0.96078431372549,
0.964705882352941);
#1112=COLOUR_RGB('Brass - Polished',0.952941176470588,0.796078431372549,
0.486274509803922);
ENDSEC;
END-ISO-10303-21;
